<svg xmlns="http://www.w3.org/2000/svg" viewBox="0 0 158 158" width="158pt" height="158pt"><path d="M91.74 111.64L77.49 79.05l-11 26.26-18.6-57.84h-6.46L14.11 120h11.75l7.36-19.53h20.13l6.53 20.38-7.07 16.81h-41.9v-117h114.64l11.18-11H6.41a6.51 6.51 0 0 0-6.5 6.5v126a6.51 6.51 0 0 0 6.5 6.5h49.38a6.49 6.49 0 0 0 6-4L77.68 107l8.78 20 1.6 3.26 7.1.08L105.59 108l11.55 35.47L127.6 140l-20.19-62zM37.36 89.5l6.72-17.87 5.74 17.87z"/><path d="M80.47 69.75a4.3 4.3 0 0 1-2.47-.81A4.25 4.25 0 0 1 77 63a26.13 26.13 0 0 1 6.21-5.6 27.62 27.62 0 0 0 3.41-2.7c3.26-3.25 7.19-7.5 8.6-11.59.76-2.23-1.33-4-2.93-4.73a8.81 8.81 0 0 0-8.75 1.26 3.76 3.76 0 0 0-.41.38A4.25 4.25 0 0 1 84 48.4a8.17 8.17 0 0 1-8.6-3.2c-2.57-3.76-1.74-7.24 2.5-10.74a18.27 18.27 0 0 1 18-2.52c6.41 2.74 10 7.92 7.9 13.91-1.93 5.61-11 12.88-15.92 16.65a65.47 65.47 0 0 1 12.42-.21c0-.25-.47-1.82-.51-2.09a4.53 4.53 0 0 1 3.88-4.89 4.26 4.26 0 0 1 4.81 3.6 13.71 13.71 0 0 1-.56 6.71 6.18 6.18 0 0 1-6.93 4 62.73 62.73 0 0 0-15.14-.25l-1.63.12c-.76 0-2.28.14-2.85.2a4.51 4.51 0 0 1-.9.06zM128 114.09a6.5 6.5 0 0 0 6.5 6.49h23.2v-11H139v-88.5L128 32z"/></svg>